<svg enable-background="new 0 0 24 24" height="512" viewBox="0 0 24 24" width="512" xmlns="http://www.w3.org/2000/svg"><g id="Color"><g><path d="m12 6.625c-5.366 0-9.9 4.646-9.9 10.145 0 .16 0 .311.01.47.022.357.317.635.674.635h18.432c.357 0 .652-.278.674-.635.01-.159.01-.31.01-.47 0-5.499-4.534-10.145-9.9-10.145z" fill="#f5f5f5"/></g><g><path d="m22.125 17.775h-.9-18.45-.9c-.373 0-.675.302-.675.675s.302.675.675.675h.373l.772 3.088c.075.301.345.512.655.512h16.65c.31 0 .58-.211.655-.512l.772-3.088h.373c.373 0 .675-.302.675-.675s-.302-.675-.675-.675z" fill="#ffa726"/></g></g><g id="_x31_.5"><g><path d="m21.25 23h-18.5c-.344 0-.644-.234-.728-.568l-1-4c-.056-.224-.006-.461.136-.644.143-.182.361-.288.592-.288h20.5c.231 0 .449.106.591.288.142.183.192.42.136.644l-1 4c-.083.334-.383.568-.727.568zm-17.915-1.5h17.329l.626-2.5h-18.58z"/></g><g><path d="m22.241 18.5c-.015 0-.03 0-.045-.001-.414-.025-.729-.381-.704-.794.009-.147.008-.286.008-.433 0-5.297-4.351-9.772-9.5-9.772s-9.5 4.476-9.5 9.772c0 .146 0 .285.008.433.025.413-.29.769-.704.794-.414.023-.769-.29-.793-.704-.011-.177-.011-.345-.011-.523 0-6.11 5.038-11.272 11-11.272s11 5.162 11 11.272c0 .178 0 .346-.011.522-.024.399-.355.706-.748.706z"/></g><g><path d="m12 7.25c-.414 0-.75-.336-.75-.75v-2c0-.414.336-.75.75-.75s.75.336.75.75v2c0 .414-.336.75-.75.75z"/></g><g><path d="m12 5c-1.103 0-2-.897-2-2s.897-2 2-2 2 .897 2 2-.897 2-2 2zm0-2.5c-.276 0-.5.225-.5.5s.224.5.5.5.5-.225.5-.5-.224-.5-.5-.5z"/></g><g><path d="m19.25 16c-.414 0-.75-.336-.75-.75 0-2.619-2.131-4.75-4.75-4.75-.414 0-.75-.336-.75-.75s.336-.75.75-.75c3.446 0 6.25 2.804 6.25 6.25 0 .414-.336.75-.75.75z"/></g><g><path d="m23.25 19h-22.5c-.414 0-.75-.336-.75-.75s.336-.75.75-.75h22.5c.414 0 .75.336.75.75s-.336.75-.75.75z"/></g></g></svg>