<svg height="480pt" viewBox="0 0 480 480" width="480pt" xmlns="http://www.w3.org/2000/svg"><path d="m312 240h80v24h-80zm0 0" fill="#d64d37"/><path d="m424 56c26.507812 0 48 21.492188 48 48v120c-26.507812 0-48-21.492188-48-48zm0 0" fill="#fd9a30"/><path d="m424 264h-32c-4.417969 0-8-3.582031-8-8v-56h-64v56c0 4.417969-3.582031 8-8 8h-32c-26.507812 0-48 21.492188-48 48v168h240v-168c0-26.507812-21.492188-48-48-48zm0 0" fill="#fec9a3"/><path d="m384 232.425781v-32.425781h-64v32.425781c20.136719 10.101563 43.863281 10.101563 64 0zm0 0" fill="#fab989"/><path d="m352 224c-39.765625 0-72-32.234375-72-72v-72c24-32 112-40 144 0v72c0 39.765625-32.234375 72-72 72zm0 0" fill="#fec9a3"/><path d="m328 132c0 6.628906-5.371094 12-12 12s-12-5.371094-12-12 5.371094-12 12-12 12 5.371094 12 12zm0 0" fill="#8c563b"/><path d="m400 132c0 6.628906-5.371094 12-12 12s-12-5.371094-12-12 5.371094-12 12-12 12 5.371094 12 12zm0 0" fill="#8c563b"/><path d="m64 296h32v64h-32zm0 0" fill="#fc3"/><path d="m8 232h144v64h-144zm0 0" fill="#f05d46"/><g fill="#d64d37"><path d="m112 256h16v16h-16zm0 0"/><path d="m80 256h16v16h-16zm0 0"/><path d="m48 256h16v16h-16zm0 0"/><path d="m328 8h48c26.507812 0 48 21.492188 48 48v32h-144v-32c0-26.507812 21.492188-48 48-48zm0 0"/></g><path d="m401.503906 102c-31.515625-14.007812-67.492187-14.007812-99.007812 0-4.949219 2.199219-10.675782 1.746094-15.214844-1.207031-4.542969-2.953125-7.28125-8-7.28125-13.417969v-5.960938c0-5.8125 3.148438-11.167968 8.230469-13.988281 39.660156-22.035156 87.878906-22.035156 127.539062 0 5.082031 2.820313 8.230469 8.175781 8.230469 13.988281v5.960938c0 5.417969-2.738281 10.464844-7.28125 13.417969-4.539062 2.953125-10.265625 3.40625-15.214844 1.207031zm0 0" fill="#f05d46"/><path d="m272 104h8v48h-8c-13.253906 0-24-10.746094-24-24s10.746094-24 24-24zm0 0" fill="#feb784"/><path d="m432 104h-8v48h8c13.253906 0 24-10.746094 24-24s-10.746094-24-24-24zm0 0" fill="#feb784"/><path d="m352 184c-13.253906 0-24-10.746094-24-24h16c0 4.417969 3.582031 8 8 8s8-3.582031 8-8h16c0 13.253906-10.746094 24-24 24zm0 0" fill="#fa996b"/><path d="m232 480h-224v-120h160l64 72zm0 0" fill="#ffb60c"/><path d="m104 480h-96v-120h32l64 72zm0 0" fill="#fc3"/><path d="m472 312c0-26.507812-21.492188-48-48-48h-16l-16-24c-9.894531 11.871094-24.546875 18.734375-40 18.734375s-30.105469-6.863281-40-18.734375l-16 24h-16c-26.507812 0-48 21.492188-48 48v40h38.335938c-8.945313 21.46875-5.222657 46.128906 9.664062 64v64h144v-64c14.886719-17.871094 18.609375-42.53125 9.664062-64h38.335938zm0 0" fill="#f05d46"/><path d="m273.511719 368h56v32h-56zm0 0" fill="#d64d37"/><path d="m273.511719 352h56v32h-56zm0 0" fill="#ebebe8"/><path d="m273.511719 368h56v16h-56zm0 0" fill="#dedede"/><path d="m352 299.390625c-21.261719.066406-41.636719-8.503906-56.457031-23.75-1.582031-1.644531-2.394531-3.882813-2.234375-6.160156.160156-2.277344 1.28125-4.378907 3.082031-5.785157 3.140625-2.480468 7.644531-2.214843 10.464844.625 11.855469 12.191407 28.140625 19.070313 45.144531 19.070313s33.289062-6.878906 45.144531-19.070313c2.820313-2.839843 7.324219-3.105468 10.464844-.625 1.800781 1.40625 2.921875 3.507813 3.082031 5.785157.160156 2.277343-.652344 4.515625-2.234375 6.160156-14.820312 15.246094-35.195312 23.816406-56.457031 23.75zm0 0" fill="#e3523b"/><path d="m308.257812 480h115.742188v-64c13.179688-15.839844 17.671875-37.171875 12-56.984375-37.414062 55.425781-88.921875 99.769531-127.742188 120.984375zm0 0" fill="#e3523b"/><path d="m440.625 352h31.375v-40c-.007812-5.960938-1.128906-11.867188-3.304688-17.414062-7.160156 20.132812-16.578124 39.394531-28.070312 57.414062zm0 0" fill="#e3523b"/><path d="m344 258.046875v221.953125h16v-221.953125c-5.300781.816406-10.699219.816406-16 0zm0 0" fill="#d64d37"/><path d="m144 384h16v16h-16zm0 0" fill="#f05d46"/><path d="m112 384h16v16h-16zm0 0" fill="#f05d46"/><path d="m168 416h16v16h-16zm0 0" fill="#f05d46"/><path d="m136 416h16v16h-16zm0 0" fill="#f05d46"/><path d="m64 296h32v24h-32zm0 0" fill="#ffb60c"/><path d="m431.449219 48.550781c-3.75-27.769531-27.429688-48.503906-55.449219-48.550781h-48c-30.914062.0351562-55.964844 25.085938-56 56v40c-17.671875 0-32 14.328125-32 32s14.328125 32 32 32h.40625c2.617188 25.566406 17.34375 48.320312 39.59375 61.175781v10.824219c-.144531 0-.28125 0-.425781 0-2.519531.132812-4.828125 1.449219-6.230469 3.550781l-13.625 20.449219h-11.71875c-30.914062.035156-55.964844 25.085938-56 56v98.953125l-50.015625-56.273437c-1.519531-1.707032-3.699219-2.683594-5.984375-2.679688h-64v-48h48c4.417969 0 8-3.582031 8-8v-64c0-4.417969-3.582031-8-8-8h-144c-4.417969 0-8 3.582031-8 8v64c0 4.417969 3.582031 8 8 8h48v48h-48c-4.417969 0-8 3.582031-8 8v112c0 4.417969 3.582031 8 8 8h232v-120h19.449219c-4.816407 20.492188-.214844 42.0625 12.550781 58.800781v61.199219h16v-64c0-1.871094-.65625-3.683594-1.855469-5.121094-4.632812-5.550781-8.117187-11.96875-10.242187-18.878906h52.097656c4.417969 0 8-3.582031 8-8v-32c0-4.417969-3.582031-8-8-8h-44.039062c2.636718-3.648438 5.714843-6.957031 9.160156-9.855469l-10.242188-12.289062c-7.320312 6.105469-13.320312 13.640625-17.632812 22.144531h-25.246094v-32c.027344-22.082031 17.917969-39.972656 40-40h12.382812c13.09375 15.292969 31.585938 24.941406 51.617188 26.9375v181.0625h16v-181.0625c20.03125-1.996094 38.523438-11.644531 51.617188-26.9375h12.382812c22.082031.027344 39.972656 17.917969 40 40v32h-25.246094c-4.300781-8.5-10.292968-16.035156-17.601562-22.144531l-10.242188 12.289062c23.113282 19.265625 26.234375 53.617188 6.976563 76.734375-1.207031 1.433594-1.875 3.246094-1.886719 5.121094v64h16v-61.199219c12.765625-16.738281 17.367188-38.308593 12.550781-58.800781h19.449219v120h16v-168c-.035156-30.914062-25.085938-55.964844-56-56h-11.71875l-13.601562-20.441406c-1.402344-2.109375-3.722657-3.429688-6.253907-3.558594-.144531 0-.28125 0-.425781 0v-10.824219c11.082031-6.4375 20.464844-15.421875 27.375-26.214843 8 22.191406 29.035156 37 52.625 37.039062 4.417969 0 8-3.582031 8-8v-120c-.046875-28.019531-20.78125-51.699219-48.550781-55.449219zm-111.449219 327.449219h-40v-16h40zm-304-136h128v48h-128zm56 64h16v48h-16zm-56 160v-96h20.40625l59.59375 67.039062v28.960938zm208 0h-112v-32c0-1.960938-.71875-3.851562-2.015625-5.320312l-52.167969-58.679688h106.589844l59.59375 67.039062zm208-352c8.835938 0 16 7.164062 16 16s-7.164062 16-16 16zm-144-30.585938c0-2.902343 1.578125-5.582031 4.121094-6.988281 37.203125-20.839843 82.5625-20.839843 119.765625 0 2.539062 1.410157 4.113281 4.085938 4.113281 6.988281v5.960938c0 2.710938-1.371094 5.234375-3.640625 6.710938-2.269531 1.472656-5.132813 1.703124-7.605469.601562-33.589844-14.902344-71.917968-14.902344-105.507812 0-2.472656 1.101562-5.335938.871094-7.605469-.601562-2.269531-1.476563-3.640625-4-3.640625-6.710938zm40-65.414062h48c22.082031.027344 39.972656 17.917969 40 40v2.550781c-40.097656-20.933593-87.902344-20.933593-128 0v-2.550781c.027344-22.082031 17.917969-39.972656 40-40zm-72 112c0-8.835938 7.164062-16 16-16v32c-8.835938 0-16-7.164062-16-16zm50 135.425781 7.238281-10.859375c8.746094 7.375 19.421875 12.085938 30.761719 13.578125v16.6875c-14.554688-1.804687-28.007812-8.675781-38-19.40625zm92 0c-9.992188 10.730469-23.445312 17.601563-38 19.40625v-16.6875c11.34375-1.5 22.019531-6.21875 30.761719-13.601562zm-22-19.851562c-14.574219 9.550781-33.425781 9.550781-48 0v-15.261719c15.621094 4.917969 32.378906 4.917969 48 0zm-24-27.574219c-35.328125-.039062-63.960938-28.671875-64-64v-42.03125c5.78125 2.074219 12.140625 1.839844 17.753906-.65625 29.445313-13.066406 63.046875-13.066406 92.492188 0 5.605468 2.53125 11.980468 2.761719 17.753906.640625v42.046875c-.039062 35.328125-28.671875 63.960938-64 64zm112-88v87.199219c-18.613281-3.824219-31.980469-20.199219-32-39.199219v-16c17.671875 0 32-14.328125 32-32s-14.328125-32-32-32v-31.199219c18.613281 3.824219 31.980469 20.199219 32 39.199219zm0 0"/><path d="m316 120c-6.628906 0-12 5.371094-12 12s5.371094 12 12 12 12-5.371094 12-12-5.371094-12-12-12zm0 0"/><path d="m388 120c-6.628906 0-12 5.371094-12 12s5.371094 12 12 12 12-5.371094 12-12-5.371094-12-12-12zm0 0"/><path d="m112 256h16v16h-16zm0 0"/><path d="m80 256h16v16h-16zm0 0"/><path d="m48 256h16v16h-16zm0 0"/><path d="m144 384h16v16h-16zm0 0"/><path d="m112 384h16v16h-16zm0 0"/><path d="m168 416h16v16h-16zm0 0"/><path d="m136 416h16v16h-16zm0 0"/><path d="m352 168c-4.417969 0-8-3.582031-8-8h-16c0 13.253906 10.746094 24 24 24s24-10.746094 24-24h-16c0 4.417969-3.582031 8-8 8zm0 0"/></svg>